<svg xmlns="http://www.w3.org/2000/svg" xmlns:xlink="http://www.w3.org/1999/xlink" width="92" height="336" viewBox="0 0 92 336">
  <defs>
    <clipPath id="clip-path">
      <rect id="長方形_2" data-name="長方形 2" width="92" height="336" transform="translate(0 -0.306)" fill="#4f3318"/>
    </clipPath>
  </defs>
  <g id="グループ_3" data-name="グループ 3" transform="translate(181 -49.694)">
    <g id="グループ_2" data-name="グループ 2" transform="translate(-181 50)" clip-path="url(#clip-path)">
      <g id="グループ_1" data-name="グループ 1" transform="translate(58.723 0.168)">
        <text id="に" transform="translate(0 331.006)" fill="#4f3318" font-size="33" font-family="HiraginoSans-W3, Hiragino Sans"><tspan x="0" y="0">に</tspan></text>
        <text id="ン" transform="translate(0 297.449)" fill="#4f3318" font-size="33" font-family="HiraginoSans-W3, Hiragino Sans"><tspan x="0" y="0">ン</tspan></text>
        <text id="パ" transform="translate(0 263.893)" fill="#4f3318" font-size="33" font-family="HiraginoSans-W3, Hiragino Sans"><tspan x="0" y="0">パ</tspan></text>
        <text id="て" transform="translate(0 230.337)" fill="#4f3318" font-size="33" font-family="HiraginoSans-W3, Hiragino Sans"><tspan x="0" y="0">て</tspan></text>
        <text id="立" transform="translate(0 196.781)" fill="#4f3318" font-size="33" font-family="HiraginoSans-W3, Hiragino Sans"><tspan x="0" y="0">立</tspan></text>
        <text id="き" transform="translate(0 163.225)" fill="#4f3318" font-size="33" font-family="HiraginoSans-W3, Hiragino Sans"><tspan x="0" y="0">き</tspan></text>
        <text id="焼" transform="translate(0 129.669)" fill="#4f3318" font-size="33" font-family="HiraginoSans-W3, Hiragino Sans"><tspan x="0" y="0">焼</tspan></text>
        <text id="て-2" data-name="て" transform="translate(0 96.112)" fill="#4f3318" font-size="33" font-family="HiraginoSans-W3, Hiragino Sans"><tspan x="0" y="0">て</tspan></text>
        <text id="め" transform="translate(0 62.556)" fill="#4f3318" font-size="33" font-family="HiraginoSans-W3, Hiragino Sans"><tspan x="0" y="0">め</tspan></text>
        <text id="初" transform="translate(0 29)" fill="#4f3318" font-size="33" font-family="HiraginoSans-W3, Hiragino Sans"><tspan x="0" y="0">初</tspan></text>
      </g>
      <path id="パス_1" data-name="パス 1" d="M31.259,215.279c-.268,1.812-1.443,6.142-3.825,6.142-2.08,0-4.2-3.86-5.035-5.337L19.983,218.7l-.638.7a.894.894,0,0,1-.671.3.99.99,0,0,1-.94-.973.861.861,0,0,1,.235-.6l.638-.671,2.886-3.121a51.336,51.336,0,0,1-2.718-5.839c-3.121.067-6.208.168-9.329.3-.268.906-.57,1.812-.872,2.718.772-.5,5.57-.57,6.678-.57.805,0,2.517-.2,2.517,1.007a.931.931,0,0,1-.94.906c-.436,0-.906-.034-1.376-.034-1.544,0-3.121.067-4.664.168-.47.034-.94.134-1.409.168H9.144c-.3,0-1.007-.4-.906-.738-1.209,3.322-3.357,8.323-5.907,10.773a.965.965,0,0,1-.671.3.967.967,0,0,1-.94-.973.982.982,0,0,1,.268-.638c3.087-3.424,5.134-8.558,6.476-12.954a.938.938,0,0,1-.94-.94.917.917,0,0,1,.805-.94,30.182,30.182,0,0,1,3.525-.2l7.181-.2A20.116,20.116,0,0,1,17.03,203.5a.974.974,0,0,1,.973-.973.931.931,0,0,1,.906.738c.336,1.142.671,2.25,1.107,3.357,1.309-.034,2.617-.067,3.926-.067a.923.923,0,1,1,0,1.846c-1.074,0-2.114.034-3.188.067.6,1.376,1.208,2.785,1.913,4.127l.168.3a22.252,22.252,0,0,1,1.78-1.778,1,1,0,0,1,.671-.268.95.95,0,0,1,.6,1.644c-.7.738-1.443,1.409-2.149,2.148.438.805,2.686,4.731,3.693,4.933.671-.134,1.51-2.416,1.678-2.986.134-.537.235-1.04.336-1.577a.911.911,0,0,1,1.812.134Zm.47-163.016a.962.962,0,0,1-1.007.975.937.937,0,0,1-.6-.2,17.052,17.052,0,0,1-1.812-1.679l-3.322-3.322c-2.988-3.02-5.941-6.04-8.726-9.194-1.611,2.517-3.423,4.9-5.268,7.248-1.98,2.483-4.028,4.933-6.176,7.25A15.567,15.567,0,0,1,2.3,55.754a1.014,1.014,0,0,1-.537.168A.989.989,0,0,1,.754,54.915a1,1,0,0,1,.436-.839A55.262,55.262,0,0,0,6.76,48.1a95.421,95.421,0,0,0,7.887-10.436c.5-.738.872-1.545,1.309-2.317a1.011,1.011,0,0,1,.906-.57,1,1,0,0,1,.973.973,3.507,3.507,0,0,1-.5,1.277c1.409,1.745,3.02,3.356,4.564,5,2.35,2.45,4.733,4.9,7.149,7.282.772.738,1.577,1.443,2.315,2.181a1,1,0,0,1,.369.772ZM20.687,241.889a.938.938,0,0,1-.94.94c-.906,0-1.812-.067-2.684-.067-1.611,0-3.188.034-4.8.1-.067.94-.134,1.846-.168,2.785,1.141-.034,2.315-.1,3.456-.1.805,0,1.611,0,1.611,1.074,0,.772-.47,7.484-.638,7.686v.034a.938.938,0,0,1-.872.638c-1.275,0-2.517.1-3.758.2V257.7c1.208-.1,2.45-.2,3.658-.2a.946.946,0,0,1,.973.94.96.96,0,0,1-.94.94c-1.242,0-2.483.1-3.725.2,0,.906-.034,1.846-.067,2.752a38.129,38.129,0,0,0,4.262-1.577.95.95,0,0,1,1.376.839.948.948,0,0,1-.5.839,46.366,46.366,0,0,1-9.162,2.953,17.713,17.713,0,0,1-2.248.436H5.384a.91.91,0,0,1-.906-.94.941.941,0,0,1,.805-.94c1.544-.3,3.089-.6,4.6-1.04.067-1.04.067-2.08.1-3.121-1.141.1-2.25.235-3.357.436-.067,0-.134.034-.2.034a.975.975,0,0,1-.94-1.007.929.929,0,0,1,.738-.872,28.125,28.125,0,0,1,3.76-.5v-.839c0-.57.034-1.141.034-1.711a26.853,26.853,0,0,0-2.82.3.946.946,0,0,1-.94.973.908.908,0,0,1-.872-.6,29.54,29.54,0,0,1-.369-5.538,36.339,36.339,0,0,1,.3-5.772.968.968,0,0,1,.94-.738.954.954,0,0,1,.94.906c0,.369-.1.772-.134,1.141,1.042-.134,2.082-.168,3.122-.235l.168-2.819a42.98,42.98,0,0,0-8.323.872.739.739,0,0,1-.268.034.917.917,0,0,1-.94-.94.907.907,0,0,1,.638-.906c1.745-.638,7.082-.839,9.062-.94.1-.7.168-1.443.3-2.148a.824.824,0,0,1,.369-.57c-1.141.168-2.315.336-3.424.6a.571.571,0,0,1-.235.034.96.96,0,0,1-.94-.94.937.937,0,0,1,.738-.907,30.515,30.515,0,0,1,3.827-.671,24.711,24.711,0,0,1,3.49-.4.917.917,0,0,1,.94.94.961.961,0,0,1-.94.941,16.876,16.876,0,0,0-2.584.268.952.952,0,0,1,.6.906,18.516,18.516,0,0,1-.235,1.846c1.544-.034,3.054-.067,4.6-.067a19.307,19.307,0,0,1,2.785.067.925.925,0,0,1,.872.94Zm-9.194-95.2c0,2.651-.034,5.3-.1,7.988a19.253,19.253,0,0,1-.2,3.121,1.007,1.007,0,0,1-1.141.772c-.436,0-.738-.57-.738-.94-1.443.067-2.887.134-4.3.3-.537.034-1.107.168-1.644.2H3.2a.973.973,0,0,1-.973-.772,26.037,26.037,0,0,1-.134-3.993c0-3.122.034-6.31.2-9.464a.967.967,0,0,1,.973-.94.913.913,0,0,1,.906.839c1.443-.134,2.852-.2,4.3-.2a10.128,10.128,0,0,1,2.248.134.919.919,0,0,1,.772.973v1.98Zm-7.384,4.53c-.034,1.174-.034,2.384-.034,3.558v1.309a47.511,47.511,0,0,1,5.337-.369q.1-2.315.1-4.632C7.7,151.086,5.921,151.153,4.109,151.22Zm5.471-5.671c-.369,0-.738-.034-1.107-.034-1.411,0-2.887.067-4.3.2,0,1.208-.034,2.382-.067,3.59,1.812-.067,3.624-.134,5.437-.134,0-.973.034-1.946.034-2.886ZM28.507,22.131l-.3,5.268c-.034.772,0,1.946-.1,2.651a1,1,0,0,1-1.007.973c-1.141,0-1.007-1.342-.94-2.114-2.619.3-5.27.436-7.921.57q-4.731.2-9.463.2a18.294,18.294,0,0,1-2.719-.067.936.936,0,0,1-.906-.805,29.5,29.5,0,0,1-.235-4.6,27.214,27.214,0,0,1,.168-4.06.992.992,0,0,1,1.98.1v.067c-.067,1.342-.168,2.718-.168,4.06,0,1.107.034,2.215.134,3.322.738,0,1.511.034,2.25.034,1.913,0,3.859-.034,5.772-.1-.067-3.725-.1-7.483-.1-11.209-2.248.1-4.53.2-6.778.2a8.983,8.983,0,0,1-1.344-.034.948.948,0,0,1-.906-.906,17.478,17.478,0,0,1-.1-1.846q-.1-2.114-.1-4.228a22.147,22.147,0,0,1,.067-2.584.967.967,0,0,1,.973-.94A.978.978,0,0,1,7.767,7.13C7.767,8,7.7,8.875,7.7,9.747c0,1.644.067,3.255.169,4.9,2.349,0,4.731-.1,7.08-.2.034-2.718.067-5.4.134-8.121a33.15,33.15,0,0,1,.2-3.693.939.939,0,0,1,.973-.906.962.962,0,0,1,1.007.975v.067c-.168,3.859-.3,7.718-.336,11.577,2.55-.134,5.134-.3,7.686-.537.1-1.711.2-3.389.336-5.1a22.364,22.364,0,0,1,.168-2.617.954.954,0,0,1,.94-.906.971.971,0,0,1,1.04.973v.067c-.067,2.382-.3,4.731-.47,7.114-.067,1.074-.1,2.55-.235,3.591a1.015,1.015,0,0,1-.973.94c-.034,0-.034-.034-.067-.034a1.015,1.015,0,0,1-.94-.973c0-.336.067-.7.067-1.04q-3.777.352-7.552.5c0,3.76.034,7.484.1,11.243,3.087-.134,6.174-.268,9.229-.638.067-1.644.168-3.255.268-4.9.034-.7.034-1.443.134-2.148a.962.962,0,0,1,1.04-.94,1,1,0,0,1,.94,1.04C28.642,20.688,28.541,21.426,28.507,22.131ZM18.338,109.543a22.313,22.313,0,0,1-5.4.738c-1.946,3.658-5.706,12.384-5.706,16.41,0,.57.2,1.04.2,1.409a1.062,1.062,0,0,1-1.04,1.007c-1.107,0-1.174-1.577-1.174-2.382,0-4.329,3.357-12.384,5.471-16.444-1.007-.067-2.08-.067-3.089-.235a.985.985,0,0,1-.872-1.007.961.961,0,0,1,.973-1.007h.136c1.309.1,2.617.235,3.926.235a12.007,12.007,0,0,1,.973-1.544,1.021,1.021,0,0,1,.805-.369,1,1,0,0,1,1.007.973,1.091,1.091,0,0,1-.369.839,22.018,22.018,0,0,0,3.624-.57.739.739,0,0,1,.268-.034.989.989,0,0,1,1.007,1.007A1.007,1.007,0,0,1,18.338,109.543Zm7.854,74.495a16.077,16.077,0,0,1-6.176,11.813,1,1,0,0,1-.6.2,1.032,1.032,0,0,1-1.007-1.007,1,1,0,0,1,.4-.805c.57-.5,1.141-.94,1.678-1.51a14.075,14.075,0,0,0,3.726-8.692c0-4.362-2.585-6.98-7.015-7.013A6.657,6.657,0,0,1,18.3,180.38a11.91,11.91,0,0,1-.772,4.195c-1.007,2.652-3.758,6.478-6.946,6.478a5.471,5.471,0,0,1-5.3-5.706c0-6.376,5.84-10.3,11.78-10.3,5.6,0,9.129,3.389,9.129,8.993ZM8.54,224.777a1.192,1.192,0,0,1-.067.336,28.6,28.6,0,0,0-1.31,7.114.872.872,0,0,1-.94.906.936.936,0,0,1-.906-1.04,30.789,30.789,0,0,1,1.409-7.684,1,1,0,0,1,.872-.57.938.938,0,0,1,.941.94Zm1.577,22.85c-1.074.067-2.148.134-3.189.268,0,.638-.034,1.309-.034,1.946,1.075-.134,2.115-.2,3.189-.3,0-.638.034-1.275.034-1.913Zm-3.223,4.094.067,2.013c1.008-.134,2.048-.235,3.055-.336,0-.638.034-1.309.034-1.946C9.01,251.52,7.936,251.587,6.894,251.721Zm8.122-74.193c-.1-.1-.168-.134-.2-.268-4.027.805-7.552,3.725-7.552,8.087a3.461,3.461,0,0,0,3.323,3.693,3.912,3.912,0,0,0,2.047-.906,10.188,10.188,0,0,0,3.658-7.753A4.388,4.388,0,0,0,15.016,177.528ZM24.95,63.908a1,1,0,0,1-.839-.47c-.438-.57-.807-1.309-1.209-1.913A75.75,75.75,0,0,1,12.231,63.1a15.345,15.345,0,0,1-1.745.168A.961.961,0,0,1,9.48,62.3a1,1,0,0,1,.268-.671c.772-.94,1.443-1.98,2.148-3.02.906-1.342,1.846-2.752,2.718-4.127a26.065,26.065,0,0,0-5.369.6.929.929,0,0,1-.3.034A.981.981,0,0,1,7.97,54.11a.939.939,0,0,1,.7-.94c1.98-.671,9.329-.84,11.644-.84a23.807,23.807,0,0,1,3.121.1.991.991,0,0,1-.067,1.98c-1.074,0-2.114-.067-3.188-.067-1.04,0-2.114,0-3.154.034-1.409,2.248-2.886,4.53-4.4,6.711a84.28,84.28,0,0,0,9.194-1.342A13.432,13.432,0,0,1,20.251,56.9a1,1,0,0,1,.94-1.007.973.973,0,0,1,.872.47c.268.369.5.805.772,1.208l1.511,2.483c.47.772,1.007,1.544,1.443,2.349a.928.928,0,0,1,.168.537A1,1,0,0,1,24.95,63.908ZM16.694,215.816a10.725,10.725,0,0,1-.436,3.087.957.957,0,0,1,.436.738c0,.874-.6.975-1.309.975-1.476,0-2.953.067-4.4.168v.034c0,.1.034.2.034.3a.89.89,0,0,1-.906.94.907.907,0,0,1-.906-.638,18.052,18.052,0,0,1-.268-3.827c0-.738,0-1.476.034-2.215a.9.9,0,0,1,.973-.906,1,1,0,0,1,.6.268,25.446,25.446,0,0,1,3.926-.268c1.208,0,2.215-.2,2.215,1.342Zm4.8,62.75c-.537,0-1.074-.067-1.611-.067-1.141,0-2.282.067-3.423.134a62.366,62.366,0,0,1-2.349,5.839,12.422,12.422,0,0,1,2.886.671c.57-.57,2.382-2.382,3.188-2.382a.99.99,0,0,1,1.04.973,1.018,1.018,0,0,1-.537.906,11.957,11.957,0,0,0-1.778,1.443c.7.436,2.248,1.545,2.248,2.451a.969.969,0,0,1-1.007,1.007,1.012,1.012,0,0,1-.872-.47,4.921,4.921,0,0,0-1.812-1.51c-1.107,1.242-3.289,3.993-3.289,5.738,0,.94,1.074,1.04,1.812,1.04a15.843,15.843,0,0,0,4.362-.738,2.171,2.171,0,0,1,.671-.134A.981.981,0,0,1,22,294.473a1.007,1.007,0,0,1-.738.973,24.527,24.527,0,0,1-5.168.906c-1.946,0-3.926-.772-3.926-3.054,0-2.181,1.98-4.9,3.322-6.511a10.127,10.127,0,0,0-2.986-.369,1.011,1.011,0,0,1-1.04-.973,1.16,1.16,0,0,1,.235-.671,39.082,39.082,0,0,0,2.55-5.939c-.906.1-1.812.2-2.684.369l-1.007.235c-.067,0-.2.034-.268.034a1,1,0,0,1-.235-1.98,30.307,30.307,0,0,1,4.9-.738,10.375,10.375,0,0,0,.5-2.248,1,1,0,0,1,1.04-.94,1.018,1.018,0,0,1,.973,1.074,7.677,7.677,0,0,1-.369,1.946q1.409-.1,2.819-.1c.872,0,2.55-.168,2.55,1.074A1,1,0,0,1,21.493,278.566Zm-10.7-61.978v.436c0,.638,0,1.275.034,1.913,1.174-.067,2.349-.134,3.523-.168a10.2,10.2,0,0,0,.47-2.45A26.764,26.764,0,0,0,10.788,216.588Zm4.195,34.664c-1.007,0-2.047.034-3.054.1,0,.638,0,1.275-.034,1.913.973-.034,1.946-.1,2.919-.168.034-.6.1-1.242.168-1.846Zm.268-3.792c-1.074,0-2.148.034-3.221.067l-.067,1.913c1.04-.034,2.114-.067,3.154-.067.067-.638.1-1.275.134-1.913Zm15.974-98.118a.946.946,0,0,1-.94.973h-.1c-.973-.067-1.946-.067-2.919-.067H25.353v.134c0,2.114.2,4.2.2,6.31a15.238,15.238,0,0,1-.2,3.02,7.4,7.4,0,0,1-7.216,5.839.96.96,0,0,1-.94-.94.946.946,0,0,1,.94-.973,5.491,5.491,0,0,0,5.335-4.3,13.9,13.9,0,0,0,.168-2.651c0-2.148-.1-4.3-.235-6.411-2.047.034-4.06.1-6.107.168a35.321,35.321,0,0,0-4.195.336c-.034,0-.134.034-.168.034a.946.946,0,0,1-.94-.973.913.913,0,0,1,.772-.94,21.31,21.31,0,0,1,3.591-.3c2.315-.134,4.664-.2,6.98-.235-.034-.671-.034-1.309-.034-1.98a.946.946,0,0,1,.941-.973.974.974,0,0,1,.973.973c0,.638,0,1.309.034,1.946h2.08a23.07,23.07,0,0,1,3.054.067.971.971,0,0,1,.839.94ZM27.1,229.575a.739.739,0,0,1-.034.268A5.09,5.09,0,0,1,22.533,233a.425.425,0,0,1-.2-.034,11.356,11.356,0,0,1-8.624-5.537,6.172,6.172,0,0,1-1.04-3.087.925.925,0,0,1,.973-1.007.9.9,0,0,1,.872.94c.134,2.45,2.919,5.1,5,6.074a6.607,6.607,0,0,0,2.886.772h.134a3.108,3.108,0,0,0,2.719-1.812.943.943,0,0,1,1.846.268Zm-6.88-138.52a.893.893,0,0,1-.4.1.99.99,0,0,1-1.04-.973,1.033,1.033,0,0,1,.6-.94c.839-.47,6.411-2.752,6.411-6.142,0-2.315-3.156-2.651-4.9-2.651a17.488,17.488,0,0,0-5.4,1.007c-.805.3-1.04.94-1.678.94a1.045,1.045,0,0,1-1.04-1.04c0-2.148,6.577-2.919,8.121-2.919,3.054,0,6.914.906,6.914,4.664C27.8,86.894,23.271,89.68,20.218,91.055Zm9.229,52.95a.925.925,0,0,1-.94.872c-.94,0-1.846-.067-2.785-.067-3.122,0-6.276.1-9.4.268-.671.034-1.309.168-1.946.168h-.134a.917.917,0,0,1-.94-.94.975.975,0,0,1,.839-.973,13.662,13.662,0,0,1,2.047-.168c1.309-.067,2.651-.134,3.96-.168.034-1.074.067-2.148.067-3.221-1.51.067-3.02.235-4.53.235a.942.942,0,0,1-1.007-.973.925.925,0,0,1,.872-.94c1.409-.168,3.221-.2,4.664-.235-.034-.57-.067-1.142-.067-1.679a.962.962,0,0,1,.906-.973c1.309,0,1.04,1.678,1.074,2.585,1.107-.034,2.183-.034,3.29-.034.839,0,2.45-.235,2.45,1.04a.979.979,0,0,1-.94.906c-.47,0-.906-.034-1.376-.034-1.141,0-2.283.034-3.424.067,0,1.074,0,2.148-.067,3.221,1.342-.034,2.719-.067,4.062-.067a19.908,19.908,0,0,1,2.45.067.97.97,0,0,1,.872,1.04ZM18.473,49.78a.969.969,0,0,1-1.007,1.007.986.986,0,0,1-.906-.6A6.962,6.962,0,0,0,14.01,47.7a1,1,0,0,1-.47-.839.974.974,0,0,1,.973-.973c1.04,0,3.96,2.819,3.96,3.893ZM19.848,157.7a.917.917,0,0,1-.94.94.972.972,0,0,1-.772-.336,12.185,12.185,0,0,1-1.309-4.228.957.957,0,1,1,1.913-.067,11.735,11.735,0,0,0,.906,3.087.937.937,0,0,1,.2.6ZM31.36,246.989a24.062,24.062,0,0,1-.235,2.718c-.268,2.651-1.342,11.981-2.986,13.726a1.041,1.041,0,0,1-.738.3c-.94,0-3.827-2.315-4.431-3.087a.917.917,0,0,1-.268-.638.967.967,0,0,1,.973-.94.915.915,0,0,1,.706.3,23.768,23.768,0,0,0,2.651,2.215c1.208-2.852,2.114-10.4,2.349-13.692-1.577.034-3.121.1-4.7.2-.975,3.725-2.015,7.417-3.323,11.008a36.957,36.957,0,0,1-1.98,4.731.954.954,0,0,1-1.812-.4.894.894,0,0,1,.1-.4,88.281,88.281,0,0,0,5-14.8,22.958,22.958,0,0,0-3.993.6.571.571,0,0,1-.235.034.956.956,0,0,1-.235-1.879,26.82,26.82,0,0,1,4.966-.671c.57-2.282,1.008-4.631,1.612-6.913a.933.933,0,0,1,.906-.772.974.974,0,0,1,.973.973,6.155,6.155,0,0,1-.235,1.074l-1.275,5.5c1.745-.1,3.49-.168,5.235-.168a.934.934,0,0,1,.973.973Zm-9.666-20.8a.931.931,0,0,1-.906.94.845.845,0,0,1-.671-.3,14.36,14.36,0,0,1-1.678-3.456,9.307,9.307,0,0,0-.336-.872.739.739,0,0,1-.034-.268.917.917,0,0,1,.94-.94.9.9,0,0,1,.872.638,17.658,17.658,0,0,0,1.577,3.624.941.941,0,0,1,.235.638Zm6.78-110.737a.974.974,0,0,1-.973.973,1.684,1.684,0,0,1-.4-.067,4.056,4.056,0,0,0-1.275-.2,11.8,11.8,0,0,0-4.531,1.074.929.929,0,0,1-.436.1,1.006,1.006,0,0,1-.47-1.913,13.679,13.679,0,0,1,5.4-1.242c.872,0,2.684.067,2.684,1.275Zm-.134,11.545a1.01,1.01,0,0,1-1.04.973c-1.611,0-5.4-.772-6.713-1.644a.943.943,0,0,1-.47-.805,1.047,1.047,0,0,1,1.007-1.074.928.928,0,0,1,.537.168,15.782,15.782,0,0,0,5.706,1.342.97.97,0,0,1,.973,1.04Zm.034,78.554a.93.93,0,0,1-1.812.268,5.719,5.719,0,0,0-2.08-2.854,1.039,1.039,0,0,1-.4-.772.938.938,0,0,1,.94-.94c1.174,0,3.356,3.156,3.356,4.3Zm1.476,21.645a.938.938,0,0,1-.94.94c-.906,0-3.356-2.987-3.356-3.859a.91.91,0,0,1,.94-.906.94.94,0,0,1,.872.6,9.079,9.079,0,0,0,2.08,2.45.9.9,0,0,1,.4.772Z" transform="translate(0.287 0.687)" fill="#4f3318"/>
    </g>
  </g>
</svg>
