<?xml version="1.0" encoding="utf-8"?>
<!-- Generator: Adobe Illustrator 27.0.0, SVG Export Plug-In . SVG Version: 6.00 Build 0)  -->
<svg version="1.1" id="_レイヤー_2" xmlns="http://www.w3.org/2000/svg" xmlns:xlink="http://www.w3.org/1999/xlink" x="0px"
	 y="0px" viewBox="0 0 330.9 192" style="enable-background:new 0 0 330.9 192;" xml:space="preserve">
<style type="text/css">
	.st0{fill:#FFFFFF;}
</style>
<g id="_レイヤー_1-2">
	<g>
		<g>
			<path class="st0" d="M0,137.9h22.2c4.4,0,7.7,1,10,2.9s3.5,4.3,3.5,7.2c0,2.4-0.8,4.5-2.4,6.2s-4,3-7.3,4c4,0.9,7,2.2,9,4
				c2,1.8,3,4.1,3,6.9c0,2.1-0.6,4-1.7,5.6c-1.2,1.6-3,3-5.7,4.1c-2.7,1.1-5.7,1.7-9.1,1.7H0v-2.2h3.5c1.1,0,1.8-0.2,2.3-0.5
				s0.7-0.7,0.7-1.2v-34.2c0-0.8-0.2-1.4-0.7-1.8c-0.5-0.4-1.2-0.6-2.1-0.6H0V137.9L0,137.9z M12.7,157.5h8.1c2.5,0,4.4-0.7,5.9-2.2
				c1.5-1.5,2.2-3.9,2.2-7.2c0-2.1-0.4-3.6-1.1-4.8c-0.7-1.1-1.7-2-3-2.5s-3.6-0.8-6.9-0.8c-2.3,0-3.8,0.2-4.3,0.5
				c-0.6,0.3-0.8,0.9-0.8,1.8V157.5z M12.7,159.6v16.4c0,0.8,0.2,1.3,0.7,1.7c0.4,0.4,1.3,0.6,2.4,0.6H21c3.4,0,6-0.8,7.6-2.3
				s2.5-3.9,2.5-7.1c0-2.9-0.9-5.2-2.5-6.9c-1.7-1.7-4-2.5-7-2.5H12.7z"/>
			<path class="st0" d="M54.5,152.7c3.6,0,6.7,1.3,9.2,3.9c2.5,2.6,3.7,6.1,3.7,10.4c0,3-0.6,5.5-1.7,7.6c-1.1,2.1-2.7,3.7-4.7,4.9
				c-2,1.2-4.2,1.8-6.6,1.8c-3.5,0-6.5-1.3-8.9-4s-3.7-6.1-3.7-10.3s1.2-7.7,3.7-10.4C47.9,154,50.9,152.7,54.5,152.7L54.5,152.7z
				 M54.5,154.8c-2.2,0-3.9,1-5.3,2.9c-1.4,1.9-2.1,5-2.1,9.2s0.7,7.4,2.1,9.4c1.4,2,3.2,3,5.3,3s4.1-1,5.5-3s2.1-5.2,2.1-9.7
				c0-4.2-0.7-7.2-2.1-9.1C58.6,155.7,56.8,154.8,54.5,154.8L54.5,154.8z"/>
			<path class="st0" d="M80.5,153v17.9c0,2.2,0.6,3.9,1.7,5.1s2.5,1.8,4.3,1.8c2.2,0,4-0.9,5.5-2.6c1.5-1.7,2.3-3.9,2.3-6.5v-10.1
				c0-0.9-0.3-1.6-1-2.1c-0.7-0.5-1.9-0.8-3.8-0.9v-2l9.5-0.5v22.2c0,1,0.3,1.8,0.9,2.4c0.6,0.6,1.4,0.8,2.4,0.8h1.7v1.9l-9.1,0.2
				l-0.6-5.3c-1.6,1.9-3.2,3.3-4.9,4.3c-1.6,1-3.3,1.4-4.9,1.4c-2.4,0-4.5-0.8-6.1-2.4c-1.7-1.6-2.5-4.4-2.5-8.2v-11.7
				c0-1-0.4-1.8-1.2-2.4c-0.6-0.4-1.8-0.6-3.6-0.6v-2L80.5,153L80.5,153z"/>
			<path class="st0" d="M117.5,137.4v39.1c0,0.5,0.2,0.9,0.5,1.2c0.5,0.4,1.1,0.6,1.8,0.6h2.9v2.2h-15.3v-2.2h2.7
				c0.9,0,1.5-0.2,2-0.6s0.7-1,0.7-1.8v-32.9c0-1-0.3-1.7-0.8-2.1c-0.7-0.6-1.6-0.9-2.6-0.9h-2.4v-2.2L117.5,137.4L117.5,137.4z"/>
			<path class="st0" d="M154.4,177.6l1,1.6c-1.4,1.4-3,2.2-4.7,2.2c-1.3,0-2.4-0.4-3.3-1.1c-0.9-0.7-1.7-2-2.4-3.8
				c-1.8,1.9-3.4,3.2-4.8,3.9c-1.4,0.6-3.1,1-5,1c-2.8,0-4.9-0.6-6.3-1.8c-1.4-1.2-2.2-2.7-2.2-4.6c0-2.8,1.6-5.1,4.9-7
				s7.7-3.1,13.2-3.7v-4.1c0-1.5-0.6-2.7-1.8-3.7c-1.2-1-2.7-1.6-4.5-1.6c-1.7,0-3.1,0.3-4.3,1c-0.9,0.5-1.3,1-1.3,1.5
				c0,0.3,0.2,0.7,0.7,1.4c0.6,0.8,0.8,1.4,0.8,2c0,0.9-0.3,1.6-0.8,2.1c-0.6,0.6-1.3,0.8-2.2,0.8c-1,0-1.8-0.3-2.4-1
				c-0.6-0.7-1-1.5-1-2.5c0-1.9,1.1-3.6,3.2-5.2c2.1-1.6,5-2.4,8.4-2.4c3.2,0,5.7,0.7,7.4,2.1c1.7,1.4,2.5,3.1,2.5,5.1v14.8
				c0,1.3,0.2,2.3,0.6,2.9c0.4,0.6,1,0.9,1.6,0.9C152.9,178.5,153.6,178.2,154.4,177.6L154.4,177.6z M145,166.2
				c-4.9,0.7-8.3,1.8-10.4,3.3c-1.5,1.2-2.3,2.8-2.3,4.9c0,1.5,0.4,2.6,1.2,3.5s1.8,1.2,3.1,1.2c2.3,0,4.2-0.9,5.9-2.6
				s2.5-3.9,2.5-6.5L145,166.2L145,166.2z"/>
			<path class="st0" d="M158.7,153.5l9-0.6c0.4,1.7,0.6,3.7,0.8,5.9c1.2-2,2.6-3.4,4.3-4.4c1.6-1,3.5-1.5,5.6-1.5
				c1.8,0,3.3,0.4,4.5,1.1c1.2,0.7,2.2,1.8,2.9,3.3c0.7,1.5,1.1,3.2,1.1,5.1v13.1c0,1,0.2,1.7,0.7,2.1c0.4,0.4,1.2,0.6,2.2,0.6h1.9
				v2.2h-14.2v-2.2h1.4c1.3,0,2.2-0.2,2.6-0.6c0.5-0.4,0.8-1,0.8-1.8v-11.6c0-2.5-0.4-4.4-1.1-5.6c-1.1-1.7-2.7-2.6-4.9-2.6
				s-4,0.9-5.4,2.6c-1.4,1.8-2.2,4-2.2,6.8v10c0,1,0.2,1.7,0.7,2.1c0.4,0.4,1.2,0.6,2.2,0.6h1.9v2.2H159v-2.2h1.9
				c0.9,0,1.7-0.2,2.1-0.6c0.5-0.4,0.7-0.9,0.7-1.4v-17.4c0-1.2-0.3-2-0.9-2.6c-0.6-0.6-1.5-0.9-2.7-0.9h-1.4L158.7,153.5
				L158.7,153.5z"/>
			<path class="st0" d="M215.5,155.1c1.9-1.9,3.7-2.9,5.3-2.9c1,0,1.8,0.3,2.4,0.9c0.6,0.6,0.9,1.4,0.9,2.2c0,0.7-0.2,1.3-0.6,1.8
				s-0.9,0.7-1.5,0.7c-1.1,0-1.8-0.7-2.2-2c-0.2-0.6-0.4-0.9-0.8-0.9c-0.6,0-1.4,0.4-2.1,1.3c0.8,1.1,1.4,2.1,1.7,3
				c0.3,0.8,0.5,1.7,0.5,2.7c0,1.7-0.4,3.1-1.2,4.4c-0.8,1.3-2.1,2.4-4,3.4c-1.9,1-3.7,1.5-5.4,1.5h-3.1c-2.2,0-3.7,0.2-4.4,0.7
				c-0.7,0.5-1.1,1.2-1.1,2.1c0,0.8,0.3,1.3,0.9,1.7c0.6,0.4,1.7,0.6,3.4,0.6l7.1-0.1c3.6,0,6.2,0.6,7.8,1.8
				c1.6,1.2,2.4,2.9,2.4,4.9c0,2.3-0.9,4.2-2.7,5.8c-2.5,2.2-6.3,3.3-11.3,3.3c-4.1,0-7.2-0.8-9.2-2.3c-1.6-1.2-2.4-2.5-2.4-4
				c0-1.1,0.5-2.2,1.5-3.1s2.7-1.6,5.1-2.1c-1.9-0.5-3.3-1.1-4.3-2c-1-0.9-1.4-2-1.4-3.3c0-1.2,0.4-2.3,1.2-3.2s2.1-1.7,4.1-2.4
				c-1.6-0.9-2.9-2-3.7-3.3s-1.2-2.7-1.2-4.4c0-2.6,1-4.8,3.1-6.6s4.7-2.7,8-2.7c1.3,0,2.6,0.2,3.9,0.6
				C213.1,153.7,214.3,154.3,215.5,155.1L215.5,155.1z M209.6,180.6c-3.5,0-6.1,0.5-7.6,1.5c-1.5,1-2.3,2.2-2.3,3.5
				c0,1.3,0.6,2.3,1.7,3.1c1.5,1,3.6,1.5,6.4,1.5c3.3,0,5.8-0.5,7.5-1.6c1.7-1.1,2.5-2.3,2.5-3.7c0-0.8-0.3-1.5-0.8-2.2
				c-0.5-0.7-1.4-1.2-2.5-1.6C213.5,180.7,211.8,180.6,209.6,180.6z M207.9,154.6c-1.7,0-3.1,0.6-4.2,1.9s-1.7,3-1.7,5.3
				c0,2.4,0.6,4.3,1.7,5.6c1.1,1.3,2.5,2,4.3,2s3.1-0.6,4.2-1.9c1.1-1.3,1.7-3.1,1.7-5.6c0-2.2-0.6-4-1.7-5.3
				C211,155.2,209.6,154.6,207.9,154.6L207.9,154.6z"/>
			<path class="st0" d="M251.8,167.2h-19.3c0.1,4.1,0.9,7,2.3,8.7c1.6,1.9,3.8,2.9,6.3,2.9c3.8,0,6.8-2.1,9.1-6.4l1.9,0.8
				c-2.8,5.5-6.9,8.2-12.2,8.2c-3.6,0-6.6-1.3-9.1-3.9c-2.5-2.6-3.7-6-3.7-10c0-4.4,1.2-7.9,3.6-10.6c2.4-2.7,5.4-4.1,9-4.1
				c2.6,0,4.9,0.7,6.8,2c1.9,1.4,3.3,3.3,4.3,5.8C251.4,162.3,251.8,164.5,251.8,167.2L251.8,167.2z M232.5,165.2h11.7
				c0.7,0,1.2-0.2,1.6-0.7c0.4-0.5,0.6-1.3,0.6-2.4c0-2.1-0.7-3.9-2-5.4c-1.3-1.5-2.9-2.2-4.6-2.2c-2,0-3.7,0.9-5.1,2.7
				S232.6,161.6,232.5,165.2L232.5,165.2z"/>
			<path class="st0" d="M255.6,153.5l9.7-0.5V164c1-3.6,2.3-6.3,3.8-8.2s3.3-2.8,5.4-2.8c1.5,0,2.6,0.4,3.5,1.3s1.3,2.1,1.3,3.6
				c0,1.2-0.3,2.2-0.9,2.8c-0.6,0.7-1.3,1-2.2,1s-1.6-0.3-2.1-0.9s-0.8-1.4-0.8-2.3c0-0.6,0.1-1.2,0.5-1.8c0.3-0.5,0.4-0.8,0.4-0.9
				c0-0.3-0.2-0.4-0.5-0.4c-0.8,0-1.7,0.5-2.7,1.4c-1.4,1.3-2.5,3.1-3.2,5.3c-1.1,3.5-1.7,6.3-1.7,8.4v5.8c0,0.6,0.2,1.1,0.7,1.5
				s1.2,0.5,2.4,0.5h3.4v2.2h-16.8v-2.2h2.7c0.9,0,1.6-0.2,2-0.5s0.7-0.8,0.7-1.3v-17.2c0-1.3-0.3-2.3-0.8-2.9
				c-0.5-0.6-1.4-0.9-2.4-0.9h-2.4L255.6,153.5L255.6,153.5z"/>
			<path class="st0" d="M281.7,153.5l10.8-0.3v23.2c0,0.6,0.1,1.1,0.5,1.4c0.4,0.4,1,0.6,1.7,0.6h3v2.2h-15.4v-2.2h2.9
				c0.9,0,1.5-0.2,1.9-0.6c0.4-0.4,0.6-1,0.6-1.8v-17c0-1.1-0.3-1.9-0.9-2.4c-0.6-0.6-1.5-0.8-2.7-0.8h-2.2L281.7,153.5L281.7,153.5
				z M289.2,137.4c0.9,0,1.6,0.3,2.3,1c0.6,0.6,1,1.4,1,2.3s-0.3,1.6-1,2.2c-0.6,0.6-1.4,0.9-2.3,0.9s-1.6-0.3-2.3-1s-1-1.4-1-2.3
				s0.3-1.6,1-2.3C287.6,137.8,288.3,137.4,289.2,137.4L289.2,137.4z"/>
			<path class="st0" d="M326.1,167.2h-19.3c0.1,4.1,0.9,7,2.3,8.7c1.7,1.9,3.8,2.9,6.3,2.9c3.8,0,6.8-2.1,9.1-6.4l1.9,0.8
				c-2.8,5.5-6.9,8.2-12.2,8.2c-3.6,0-6.6-1.3-9.1-3.9c-2.5-2.6-3.7-6-3.7-10c0-4.4,1.2-7.9,3.6-10.6c2.4-2.7,5.4-4.1,9-4.1
				c2.6,0,4.9,0.7,6.8,2c1.9,1.4,3.3,3.3,4.3,5.8C325.7,162.3,326.1,164.5,326.1,167.2L326.1,167.2z M306.8,165.2h11.7
				c0.7,0,1.2-0.2,1.6-0.7c0.4-0.5,0.6-1.3,0.6-2.4c0-2.1-0.7-3.9-2-5.4c-1.3-1.5-2.9-2.2-4.7-2.2c-2,0-3.7,0.9-5.1,2.7
				S306.9,161.6,306.8,165.2L306.8,165.2z"/>
		</g>
		<g>
			<path class="st0" d="M0.1,2.3h47.3v5.6h-8.7c-3,0-5,0.5-6,1.6c-0.9,1.1-1.4,3.7-1.4,7.8v34.1H82V17.4c0-4.3-0.4-6.9-1.3-7.9
				c-0.9-1-2.9-1.5-6.2-1.5h-8.1V2.3h47v5.6h-8.6c-2.1,0-3.7,0.3-4.5,0.8c-0.9,0.5-1.6,1.5-2.1,2.8c-0.3,0.9-0.4,3.1-0.4,6.7v79.6
				c0,3.8,0.3,6.2,1,7c1.3,1.7,3.7,2.6,7.1,2.6h7.6v5.6h-47v-5.6h8.1c3.2,0,5.4-0.9,6.5-2.6c0.7-0.9,1-3.4,1-7.5V58.8H31.4v39.1
				c0,3.9,0.3,6.2,0.9,7c1.2,1.7,3.4,2.5,6.4,2.5h8.7v5.6H0.1v-5.6h9.1c1.6,0,2.9-0.3,3.8-1c0.9-0.7,1.6-1.6,2.1-2.8
				c0.2-0.8,0.4-2.9,0.4-6.4V17.4c0-4.1-0.5-6.8-1.4-7.8c-0.9-1.1-2.9-1.6-6-1.6H0.1V2.3z"/>
			<path class="st0" d="M174.2,0h5l39.7,101.3c1.6,4.1,4.9,6.1,9.8,6.1h3.4v5.6H188v-5.6h3.5c4.6,0,7.8-0.5,9.7-1.5
				c1.3-0.7,1.9-1.8,1.9-3.2c0-0.8-0.2-1.8-0.5-2.7l-9.2-23.5h-43.8L144.5,90c-1.4,3.6-2,6.4-2,8.5c0,2.4,1.1,4.5,3.4,6.3
				c2.3,1.8,5.6,2.6,9.9,2.6h3.7v5.6h-40.1v-5.6c4.3,0,7.7-0.9,10.2-2.8c2.5-1.9,4.8-5.4,6.9-10.7L174.2,0z M172,21.3l-19.9,49.3
				h39.1L172,21.3z"/>
			<path class="st0" d="M236.1,2.3h51.3v5.6h-12.3c-1.9,0-3.4,0.5-4.3,1.5c-0.9,1-1.4,2.6-1.4,4.8v87.3c0,2.1,0.6,3.6,1.8,4.5
				s3.5,1.3,7.1,1.3h15.5c8.3,0,15-2.8,20.3-8.3c5.2-5.5,9.1-15.1,11.5-28.7h5.2l-2.5,42.6h-92.2v-5.6h9.1c3.1,0,5.3-0.6,6.5-1.8
				c1.2-1.2,1.9-3.1,1.9-5.7V13.5c0-1.9-0.5-3.2-1.6-4.2c-1-0.9-2.6-1.4-4.6-1.4h-11.2L236.1,2.3L236.1,2.3z"/>
		</g>
	</g>
</g>
</svg>
